<svg width="200" height="200" viewBox="0 0 100 100" fill="none" xmlns="http://www.w3.org/2000/svg">
  <defs>
    <style>
      .paper { fill: #f0f0ff; stroke: #332d2d; stroke-width: 2.5; stroke-linejoin: round; }
      .accent { fill: #ff7e7e; }
      .lines { stroke: #332d2d; stroke-width: 2; stroke-linecap: round; }
    </style>
  </defs>

  <path class="paper" d="M30 15 C 30 10, 70 10, 70 15 L 70 45 L 65 43 L 60 46 L 55 43 L 50 46 L 45 43 L 40 46 L 35 43 L 30 45 Z" />
  <path class="paper" d="M30 55 L 35 53 L 40 56 L 45 53 L 50 56 L 55 53 L 60 56 L 65 53 L 70 55 L 70 80 C 70 85, 30 85, 30 80 Z" />

  <text x="43" y="32" fill="#332d2d" font-family="Arial" font-weight="bold" font-size="12">$</text>

  <line class="lines" x1="45" y1="38" x2="62" y2="38" />
  <rect class="accent" x="36" y="35" width="5" height="5" rx="1" />
  
  <line class="lines" x1="45" y1="68" x2="62" y2="68" />
  <rect class="accent" x="36" y="65" width="5" height="5" rx="1" />
</svg>
